<svg xmlns="http://www.w3.org/2000/svg" xmlns:xlink="http://www.w3.org/1999/xlink" id="Layer_1" x="0px" y="0px" viewBox="0 0 133 43" style="enable-background:new 0 0 133 43;" xml:space="preserve"> <style type="text/css"> .st0{fill:#F36C21;} .st1{fill:#EB2E8C;} </style> <path class="st0" d="M31,13V3.6C31,1.5,32.5,0,34.6,0s3.5,1.5,3.5,3.6v9.2c0,1.4,1,2.4,2.2,2.4c1.2,0,2.2-1,2.2-2.4V3.6 c0-2.1,1.5-3.6,3.5-3.6c2,0,3.5,1.5,3.5,3.6V13c0,5.2-3.7,9.1-9.3,9.1C34.8,22.1,31,18.2,31,13"></path> <path class="st0" d="M52.1,18.1V3.3c0-1.9,1.5-3.3,3.4-3.3c1.5,0,2.5,0.7,3.3,1.8l4.1,5.5c0.7,1,1.5,2.1,2.2,3.2V3.9 C65,1.6,66.2,0,68.5,0C70.8,0,72,1.6,72,3.9v14.8c0,1.9-1.5,3.3-3.4,3.3c-1.5,0-2.5-0.7-3.3-1.8L61,14.9c-0.6-0.8-1.4-1.9-1.9-2.8 v6.1c0,2.3-1.2,4-3.5,4C53.3,22.1,52.1,20.4,52.1,18.1"></path> <path class="st0" d="M85.8,20.5L83,17.1c-0.7-0.8-0.9-1.2-1.5-1.9v3.3c0,2.1-1.5,3.6-3.5,3.6c-2.1,0-3.5-1.5-3.5-3.6V3.6 C74.5,1.5,75.9,0,78,0c2.1,0,3.5,1.5,3.5,3.6v3.2C82,6,82.4,5.6,83,4.8l2.4-3.1c3.2-4.1,8.9,0.7,5.5,4.7L87,10.9l4.2,4.7 C94.5,19.4,89.2,24.6,85.8,20.5"></path> <path class="st0" d="M94.5,18.5V3.6C94.5,1.5,95.9,0,98,0c2.1,0,3.5,1.5,3.5,3.6v14.9c0,2.1-1.5,3.6-3.5,3.6 C95.9,22.1,94.5,20.6,94.5,18.5"></path> <path class="st0" d="M103.9,18.1V3.3c0-1.9,1.5-3.3,3.4-3.3c1.5,0,2.5,0.7,3.3,1.8l4.1,5.5c0.7,1,1.5,2.1,2.2,3.2V3.9 c0-2.3,1.2-3.9,3.5-3.9c2.3,0,3.5,1.6,3.5,3.9v14.8c0,1.9-1.5,3.3-3.4,3.3c-1.5,0-2.5-0.7-3.3-1.8l-4.3-5.5 c-0.6-0.8-1.4-1.9-1.9-2.8v6.1c0,2.3-1.2,4-3.5,4C105.1,22.1,103.9,20.4,103.9,18.1"></path> <path class="st1" d="M129.8,0c1.2,0.2,2.5,1,2.8,2.5c0.1,0.8-0.1,1.9-0.4,3.2c-0.4,1.3-0.7,2.4-1.5,3.1c-0.6,0.6-1.4,0.7-2,0.6l0,0 c-0.6-0.1-1.3-0.4-1.8-1.1c-0.6-0.9-0.6-2.1-0.7-3.4c0-1.4,0.1-2.5,0.4-3.2C127.1,0.4,128.6-0.1,129.8,0"></path> <path class="st0" d="M127.8,20.5c0,0.7-0.6,1.3-1.4,1.3s-1.4-0.6-1.4-1.3c0-0.7,0.6-1.3,1.4-1.3S127.8,19.8,127.8,20.5 M127.4,20.5 c0-0.5-0.4-1-1-1s-1,0.4-1,1s0.4,1,1,1S127.4,21.1,127.4,20.5 M127,20.9c0,0,0.1,0.1,0.1,0.1c0,0.1-0.1,0.2-0.2,0.2 c-0.1,0-0.1,0-0.2-0.1l-0.3-0.4h-0.1V21c0,0.1-0.1,0.2-0.2,0.2c-0.1,0-0.2-0.1-0.2-0.2v-0.9c0-0.1,0.1-0.2,0.2-0.2h0.4 c0.3,0,0.5,0.2,0.5,0.5c0,0.2-0.1,0.3-0.2,0.4L127,20.9z M126.4,20.4h0.1c0.1,0,0.1,0,0.1-0.1s-0.1-0.1-0.1-0.1h-0.1V20.4z"></path> <path class="st0" d="M9.4,17.7V4.4c0-2.3,1.7-3.9,3.9-3.9H18c6.2,0,11.2,4.1,11.2,10.6c0,6.5-5,10.6-11.2,10.6h-4.7 C11,21.6,9.4,20,9.4,17.7 M18.2,14.9c2.3,0,3.9-1.5,3.9-3.8c0-2.4-1.7-3.8-3.9-3.8h-1.8v7.6H18.2z"></path> <path class="st1" d="M42,29.9c1.5,0,2.6-1.1,2.6-2.5c0-1.5-1.1-2.5-2.6-2.5h-7.7c-1.8,0-3,1.2-3,3v11.8c0,1.8,1.2,3,3,3H42 c1.5,0,2.6-1.1,2.6-2.5c0-1.5-1.1-2.5-2.6-2.5h-4.8v-1.9h3.4c1.3,0,2.2-0.9,2.2-2.2c0-1.2-0.9-2.2-2.2-2.2h-3.4v-1.4H42z"></path> <path class="st1" d="M57,36.9h-4.6v-9.5c0-1.8-1.2-3-3-3c-1.7,0-3,1.2-3,3v12.2c0,1.8,1.2,3,3,3H57c1.7,0,3-1.2,3-2.9 C60,38.1,58.7,36.9,57,36.9"></path> <path class="st1" d="M64.5,24.4c-1.7,0-3,1.2-3,3V40c0,1.8,1.2,3,3,3c1.7,0,3-1.2,3-3V27.4C67.5,25.7,66.3,24.4,64.5,24.4"></path> <path class="st1" d="M83.6,24.4c-1.3,0-2.2,0.6-2.9,2.1l-1.3,3.2l-1.6,4.4l-1.6-4.4L75,26.6c-0.6-1.5-1.6-2.1-2.9-2.1 c-1.9,0-3.2,1.2-3.2,2.9c0,0.5,0.1,1,0.3,1.5l5.1,11.3c0.8,1.7,1.6,2.8,3.5,2.8c1.9,0,2.7-1.1,3.5-2.8l5.1-11.3 c0.2-0.5,0.3-1,0.3-1.5C86.8,25.7,85.5,24.4,83.6,24.4"></path> <path class="st1" d="M99,29.9c1.5,0,2.6-1.1,2.6-2.5c0-1.5-1.1-2.5-2.6-2.5h-7.7c-1.8,0-3,1.2-3,3v11.8c0,1.8,1.2,3,3,3H99 c1.5,0,2.6-1.1,2.6-2.5c0-1.5-1.1-2.5-2.6-2.5h-4.8v-1.9h3.4c1.3,0,2.2-0.9,2.2-2.2c0-1.2-0.9-2.2-2.2-2.2h-3.4v-1.4H99z"></path> <path class="st1" d="M115.5,36c1.5-1.1,2.4-2.9,2.4-5c0-3.7-2.7-6.2-6.6-6.2h-5c-1.7,0-3,1.2-3,3V40c0,1.8,1.2,3,3,3 c1.7,0,3-1.2,3-3v-2.7l3.4,4.3c0.6,0.8,1.5,1.4,2.5,1.4c1.6,0,2.9-1.3,2.9-2.9c0-0.8-0.3-1.6-0.9-2.1L115.5,36z M110.4,32.8h-1.1 v-3.6h1.1c1.1,0,1.9,0.7,1.9,1.8C112.3,32.2,111.5,32.8,110.4,32.8"></path> <path class="st1" d="M128.6,31.6l-1.8-0.7c-1-0.4-1.4-0.6-1.4-1.1c0-0.4,0.4-0.7,0.8-0.7c0.6,0,1,0.3,1.5,0.9 c0.7,0.9,1.5,1.2,2.3,1.2c1.5,0,2.8-1.2,2.8-2.8c0-0.6-0.2-1.3-0.8-2c-1.4-1.6-3.3-2.1-5.6-2.1c-4,0-6.8,2.2-6.8,5.6 c0,2.4,1.3,4.1,3.7,5l2.6,1c0.7,0.3,1.1,0.6,1.1,1.1c0,0.4-0.3,0.8-0.9,0.8c-0.7,0-1.3-0.4-1.8-1c-0.7-1-1.6-1.4-2.4-1.4 c-1.4,0-2.8,1.1-2.8,2.7c0,0.7,0.3,1.6,1,2.4c1.4,1.7,3.8,2.3,5.9,2.3c4.4,0,6.9-2.7,6.9-5.8C133,34.3,131.6,32.8,128.6,31.6"></path> <path class="st1" d="M7.2,34.7H0.9c-0.5,0-0.9-0.4-0.9-1c0-0.5,0.4-1,0.9-1h6.2c0.5,0,0.9,0.4,0.9,1C8.1,34.3,7.7,34.7,7.2,34.7"></path> <path class="st1" d="M7.6,42.6H5.7c-0.5,0-0.9-0.4-0.9-1s0.4-1,0.9-1h1.8c0.5,0,0.9,0.4,0.9,1S8.1,42.6,7.6,42.6"></path> <path class="st1" d="M19.8,24.8L19.8,24.8C19.7,24.8,19.7,24.8,19.8,24.8l-9.8,0c-0.5,0-0.9,0.4-0.9,1c0,0.5,0.4,1,0.9,1h2.8h0 c0.5,0,0.9,0.4,0.9,1c0,0.5-0.4,1-0.9,1h-0.3H4.4c-0.5,0-0.9,0.4-0.9,1c0,0.5,0.4,1,0.9,1h8.1H14c0.5,0,0.9,0.4,0.9,1 c0,0.5-0.4,1-0.9,1h-1.5h-2.1c-0.5,0-0.9,0.4-0.9,1c0,0.5,0.4,1,0.9,1h1.9h0.1v0c0.4,0.1,0.8,0.5,0.8,1c0,0.5-0.3,0.9-0.8,1v0h-0.1 H3.4c-0.5,0-0.9,0.4-0.9,1s0.4,1,0.9,1h9.1h2.1c0.5,0,0.9,0.4,0.9,1s-0.4,1-0.9,1h-1.9h-1.8c-0.5,0-0.9,0.4-0.9,1c0,0.5,0.4,1,0.9,1 h4.9h3.9h0.1c5.2,0,9.4-3.4,9.4-8.9C29.2,28.2,25,24.8,19.8,24.8 M20,36.9h-1.5v-6.4H20c1.9,0,3.3,1.2,3.3,3.2 C23.3,35.7,21.9,36.9,20,36.9"></path> </svg>